<svg width="665" height="193" viewBox="0 0 665 193" fill="none" xmlns="http://www.w3.org/2000/svg">
<path d="M123.013 97.5263C123.013 99.6651 122.491 101.783 121.477 103.759C120.463 105.735 118.977 107.531 117.104 109.043C115.231 110.555 113.007 111.755 110.559 112.574C108.111 113.392 105.488 113.813 102.839 113.813C100.189 113.813 97.566 113.392 95.1184 112.574C92.6707 111.755 90.4467 110.555 88.5734 109.043C86.7001 107.531 85.214 105.735 84.2002 103.759C83.1864 101.783 82.6645 99.6651 82.6645 97.5263L123.013 97.5263Z" fill="#97CFEE"/>
<path d="M123.013 95.8548C123.013 93.3842 122.491 90.9377 121.477 88.6552C120.463 86.3726 118.977 84.2986 117.104 82.5516C115.231 80.8046 113.007 79.4188 110.559 78.4733C108.111 77.5278 105.488 77.0412 102.839 77.0412V95.8548H123.013Z" fill="#EBC57C"/>
<path d="M93.3152 116.884C93.3152 118.58 91.9404 119.955 90.2444 119.955C88.5484 119.955 87.1736 118.58 87.1736 116.884C87.1736 115.188 88.5484 113.813 90.2444 113.813C91.9404 113.813 93.3152 115.188 93.3152 116.884Z" fill="#97CFEE"/>
<path d="M118.504 116.884C118.504 118.58 117.129 119.955 115.433 119.955C113.737 119.955 112.362 118.58 112.362 116.884C112.362 115.188 113.737 113.813 115.433 113.813C117.129 113.813 118.504 115.188 118.504 116.884Z" fill="#97CFEE"/>
<path d="M78 92.6868C78 92.2467 78.3568 91.89 78.7969 91.89H88.2261C88.7693 91.89 89.2876 92.1172 89.6556 92.5167L95.0019 98.3205C95.5158 98.8783 95.1201 99.7808 94.3616 99.7808C94.1161 99.7808 93.8819 99.6771 93.7169 99.4953L88.8405 94.1212C88.4721 93.7152 87.9494 93.4837 87.4011 93.4837H78.7969C78.3568 93.4837 78 93.1269 78 92.6868Z" fill="#97CFEE"/>
<path d="M122.694 84.499C122.252 83.9447 122.344 83.1377 122.898 82.6966L127.809 78.7881C128.363 78.3469 129.17 78.4386 129.612 78.9929C130.053 79.5472 129.961 80.3542 129.407 80.7954L124.496 84.7039C123.942 85.1451 123.135 85.0534 122.694 84.499Z" fill="#FDCE73"/>
<path d="M124.67 87.1951C124.75 86.4912 125.385 85.9854 126.089 86.0654L132.325 86.7742C133.029 86.8542 133.535 87.4897 133.455 88.1936C133.375 88.8975 132.739 89.4033 132.035 89.3233L125.799 88.6145C125.095 88.5345 124.59 87.8991 124.67 87.1951Z" fill="#FDCE73"/>
<path d="M120.478 81.9287C121.182 82.0087 121.817 81.5029 121.897 80.799L122.606 74.5628C122.686 73.8589 122.18 73.2235 121.476 73.1435C120.772 73.0635 120.137 73.5692 120.057 74.2731L119.348 80.5093C119.268 81.2132 119.774 81.8487 120.478 81.9287Z" fill="#FDCE73"/>
<path d="M180.241 112.833C180.241 113.285 180.263 113.691 180.308 114.052C180.399 115.677 180.444 116.919 180.444 117.776C180.444 118.589 180.376 119.198 180.241 119.605V119.605C180.1 120.165 179.409 120.214 178.831 120.214C178.741 120.214 178.647 120.214 178.548 120.214C178.051 120.169 177.397 120.169 176.584 120.214C175.816 120.259 174.485 120.304 172.589 120.35C170.738 120.395 168.165 120.417 164.869 120.417C161.864 120.417 157.914 120.379 153.019 120.302C152.343 120.291 151.8 119.739 151.8 119.063V119.063C151.935 115.677 152.048 112.63 152.138 109.921C152.229 107.167 152.274 104.617 152.274 102.269C152.319 99.8766 152.341 97.5743 152.341 95.3622C152.341 93.1501 152.319 90.8929 152.274 88.5906C152.229 86.2882 152.183 83.8504 152.138 81.2772C152.104 79.263 152.069 77.0886 152.034 74.7538C152.015 73.4623 152.816 72.3256 154.102 72.2031V72.2031C155.05 72.0677 156.066 72 157.149 72C158.233 72 159.294 72.0677 160.332 72.2031V72.2031C161.879 72.4049 162.804 73.8381 162.77 75.3979C162.725 77.5155 162.702 79.6783 162.702 81.8866C162.747 84.9564 162.792 88.0488 162.837 91.1638C162.883 94.2787 162.905 97.3937 162.905 100.509C162.95 103.578 162.95 106.558 162.905 109.447V109.447C162.905 109.481 162.938 109.506 162.971 109.498C163.299 109.422 163.864 109.405 164.666 109.447C165.569 109.447 166.607 109.47 167.781 109.515C168.955 109.56 170.196 109.628 171.505 109.718C172.86 109.763 174.124 109.808 175.297 109.854C176.516 109.899 177.577 109.944 178.48 109.989C178.647 109.989 178.805 109.988 178.954 109.987C179.746 109.979 180.448 110.622 180.376 111.411V111.411C180.331 111.862 180.286 112.336 180.241 112.833Z" fill="#318DC1"/>
<path d="M209.761 110.937C212.608 111.07 215.542 111.094 218.564 111.009C218.638 111.007 218.699 111.066 218.699 111.14V111.14C218.79 112.585 218.812 114.097 218.767 115.677V115.677C218.691 118.257 216.353 119.988 213.771 120.002C210.581 120.02 207.348 120.091 204.073 120.214C203.388 120.234 202.708 120.248 202.031 120.257C195.449 120.347 190.413 114.809 190.258 108.228V108.228C190.168 104.346 190.1 100.486 190.055 96.6488C190.01 92.8116 190.01 88.9743 190.055 85.137C190.078 83.1783 190.125 81.2136 190.195 79.2431C190.31 76.0058 192.911 73.4263 196.15 73.3543V73.3543C198.226 73.264 200.303 73.1963 202.38 73.1512C204.456 73.106 206.465 73.0609 208.406 73.0157C210.348 72.9706 212.063 72.948 213.553 72.948C215.043 72.948 216.239 72.9706 217.142 73.0157C217.219 73.0196 217.294 73.0235 217.364 73.0274C218.126 73.069 218.561 73.5293 218.627 74.2893C218.733 75.4995 218.735 76.7228 218.632 77.9591C218.541 79.5843 218.496 81.1869 218.496 82.7669V82.7669C218.496 82.8065 218.469 82.8407 218.43 82.849C217.007 83.1568 215.562 83.3552 214.095 83.4441C212.65 83.4892 211.183 83.5118 209.693 83.5118C208.203 83.4667 206.714 83.4441 205.224 83.4441C203.734 83.4441 202.244 83.5118 200.755 83.6472H200.598C200.568 83.6472 200.539 83.6591 200.518 83.6803V83.6803C200.496 83.7024 200.484 83.7327 200.485 83.7639C200.527 85.0579 200.459 86.3959 200.281 87.778C200.147 89.1179 200.233 90.3915 200.541 91.5988C200.548 91.6244 200.561 91.6476 200.58 91.6663V91.6663C200.605 91.6916 200.639 91.7068 200.674 91.7092C202.011 91.797 203.369 91.8409 204.75 91.8409C206.128 91.8409 207.507 91.8628 208.885 91.9067C208.92 91.9078 208.948 91.9365 208.948 91.9716V91.9716C208.948 91.9748 208.948 91.978 208.949 91.9811C209.174 93.5144 209.242 95.0478 209.151 96.5811C209.104 97.388 209.075 98.2136 209.065 99.0579C209.049 100.424 208.146 101.656 206.781 101.728V101.728C205.924 101.728 205.088 101.728 204.276 101.728C203.508 101.728 202.809 101.75 202.177 101.795V101.795C201.311 101.857 200.796 102.605 200.712 103.469C200.62 104.42 200.589 105.442 200.619 106.535C200.708 108.138 200.797 109.478 200.886 110.554C200.889 110.583 200.901 110.61 200.922 110.63V110.63C200.945 110.653 200.976 110.666 201.009 110.666C203.971 110.667 206.888 110.757 209.761 110.937Z" fill="#318DC1"/>
<path d="M250.489 93.3307C250.805 94.6399 251.053 95.6782 251.233 96.4457L256.311 120.139C256.312 120.144 256.312 120.149 256.312 120.154V120.154C256.312 120.189 256.288 120.219 256.253 120.226C254.915 120.488 253.445 120.574 251.843 120.485C250.221 120.44 248.689 120.26 247.247 119.945C247.241 119.944 247.235 119.943 247.229 119.943V119.943C247.194 119.943 247.162 119.922 247.15 119.888C246.886 119.178 246.622 118.338 246.358 117.37C246.132 116.377 245.884 115.361 245.613 114.323C245.387 113.285 245.139 112.291 244.868 111.343C244.749 110.925 244.625 110.534 244.497 110.168C244.215 109.365 243.485 108.77 242.634 108.77V108.77C242.317 108.77 242.024 108.77 241.753 108.77C241.555 108.77 241.321 108.788 241.052 108.823C240.978 108.832 240.933 108.838 240.858 108.838V108.838C240.227 108.838 239.619 109.209 239.419 109.807C239.256 110.296 239.109 110.83 238.977 111.411C238.796 112.359 238.593 113.375 238.367 114.458C238.187 115.497 237.984 116.512 237.758 117.506C237.54 118.464 237.238 119.317 236.853 120.065C236.827 120.115 236.771 120.144 236.723 120.174C236.72 120.176 236.717 120.178 236.714 120.18C236.687 120.2 236.668 120.214 236.634 120.214V120.214C236.624 120.214 236.602 120.215 236.592 120.218C236.221 120.304 235.323 120.303 233.898 120.214C232.453 120.124 230.196 120.101 227.126 120.146V120.146C227.03 120.146 227.007 120.022 227.029 119.928C227.123 119.526 227.268 118.696 227.465 117.438C227.691 115.993 228.007 114.12 228.413 111.817C228.819 109.515 229.293 106.874 229.835 103.894C230.422 100.87 231.099 97.6646 231.867 94.2787C232.634 90.8929 233.469 87.3717 234.372 83.715C235.194 80.3877 236.09 77.0791 237.061 73.7891C237.237 73.1933 237.746 72.7449 238.367 72.7449V72.7449C238.729 72.7449 239.203 72.7449 239.789 72.7449C240.376 72.7449 241.121 72.7449 242.024 72.7449C242.298 72.7318 242.594 72.715 242.913 72.6945C244.501 72.5921 245.945 73.6298 246.29 75.1827V75.1827C246.606 76.3564 246.922 77.7108 247.238 79.2457C247.599 80.7354 247.961 82.3381 248.322 84.0535C248.728 85.769 249.112 87.4168 249.473 88.9969C249.834 90.5769 250.173 92.0215 250.489 93.3307ZM241.753 100.915V100.915C243.122 100.843 244.188 99.6511 244.02 98.2905C243.689 95.6113 243.385 93.4389 243.108 91.7732C242.792 89.6063 242.498 88.1391 242.227 87.3717C242.001 86.6042 241.753 86.4462 241.482 86.8976C241.257 87.3039 241.031 88.1617 240.805 89.4709C240.625 90.7801 240.399 92.4278 240.128 94.4142C239.983 95.6877 239.82 97.0261 239.638 98.4295C239.469 99.7339 240.438 100.915 241.753 100.915V100.915Z" fill="#318DC1"/>
<path d="M288.83 73.6929V73.6929C290.177 73.6929 291.062 74.979 290.798 76.3001C290.163 79.484 289.484 82.6103 288.762 85.6787C287.904 89.516 287.002 93.3307 286.054 97.1228C285.106 100.915 284.135 104.73 283.142 108.567C282.287 111.83 281.399 115.144 280.477 118.508C280.212 119.476 279.331 120.165 278.334 120.282V120.282C277.566 120.372 276.709 120.417 275.761 120.417C274.767 120.417 273.752 120.372 272.713 120.282V120.282C271.086 120.208 269.873 118.929 269.456 117.355C267.731 110.843 266.288 104.189 265.129 97.3937C263.82 89.674 262.849 81.9092 262.217 74.0992V74.0992C262.217 74.0555 262.232 74.0128 262.263 73.9818C262.552 73.6917 263.123 73.4826 263.978 73.3543C264.881 73.2189 265.851 73.1512 266.89 73.1512C267.928 73.106 268.921 73.106 269.869 73.1512V73.1512C271.075 73.2086 271.981 74.1115 272.067 75.3155C272.116 76.0101 272.151 76.8236 272.172 77.7559C272.217 79.7874 272.33 82.2252 272.51 85.0693C272.691 87.9134 272.984 91.0509 273.391 94.4819C273.416 94.676 273.442 94.8704 273.469 95.0652C273.825 97.6304 277.065 97.6404 277.521 95.0913V95.0913C278.063 92.0215 278.537 89.2 278.943 86.6268C279.35 84.0535 279.733 81.6835 280.095 79.5165C280.449 77.3921 280.868 75.3979 281.352 73.5338C281.371 73.4595 281.362 73.3684 281.419 73.317V73.317C281.47 73.2707 281.551 73.2948 281.618 73.3101C282.354 73.477 283.11 73.582 283.887 73.6252C284.699 73.6252 285.512 73.6252 286.324 73.6252C287.182 73.6252 288.017 73.6478 288.83 73.6929Z" fill="#318DC1"/>
<path d="M320.144 110.937C322.991 111.07 325.925 111.094 328.947 111.009C329.021 111.007 329.083 111.066 329.083 111.14V111.14C329.173 112.585 329.196 114.097 329.15 115.677V115.677C329.075 118.257 326.736 119.988 324.155 120.002C320.964 120.02 317.731 120.091 314.456 120.214C313.772 120.234 313.091 120.248 312.415 120.257C305.833 120.347 300.797 114.809 300.642 108.228V108.228C300.551 104.346 300.484 100.486 300.439 96.6488C300.393 92.8116 300.393 88.9743 300.439 85.137C300.462 83.1783 300.508 81.2136 300.578 79.2431C300.693 76.0058 303.294 73.4263 306.533 73.3543V73.3543C308.61 73.264 310.686 73.1963 312.763 73.1512C314.84 73.106 316.849 73.0609 318.79 73.0157C320.731 72.9706 322.446 72.948 323.936 72.948C325.426 72.948 326.622 72.9706 327.525 73.0157C327.603 73.0196 327.677 73.0235 327.748 73.0274C328.509 73.069 328.944 73.5293 329.011 74.2893C329.117 75.4995 329.118 76.7228 329.015 77.9591C328.925 79.5843 328.88 81.1869 328.88 82.7669V82.7669C328.88 82.8065 328.852 82.8407 328.813 82.849C327.39 83.1568 325.945 83.3552 324.478 83.4441C323.033 83.4892 321.566 83.5118 320.076 83.5118C318.587 83.4667 317.097 83.4441 315.607 83.4441C314.117 83.4441 312.628 83.5118 311.138 83.6472H310.981C310.951 83.6472 310.923 83.6591 310.902 83.6803V83.6803C310.879 83.7024 310.868 83.7327 310.869 83.7639C310.91 85.0579 310.842 86.3959 310.664 87.778C310.53 89.1179 310.617 90.3915 310.925 91.5988C310.931 91.6244 310.944 91.6476 310.963 91.6663V91.6663C310.988 91.6916 311.022 91.7068 311.058 91.7092C312.394 91.797 313.753 91.8409 315.133 91.8409C316.512 91.8409 317.89 91.8628 319.269 91.9067C319.304 91.9078 319.331 91.9365 319.331 91.9716V91.9716C319.331 91.9748 319.332 91.978 319.332 91.9811C319.557 93.5144 319.625 95.0478 319.535 96.5811C319.487 97.388 319.458 98.2136 319.448 99.0579C319.432 100.424 318.529 101.656 317.165 101.728V101.728C316.307 101.728 315.472 101.728 314.659 101.728C313.892 101.728 313.192 101.75 312.56 101.795V101.795C311.694 101.857 311.179 102.605 311.095 103.469C311.003 104.42 310.972 105.442 311.002 106.535C311.091 108.138 311.18 109.478 311.27 110.554C311.272 110.583 311.284 110.61 311.305 110.63V110.63C311.328 110.653 311.359 110.666 311.392 110.666C314.354 110.667 317.271 110.757 320.144 110.937Z" fill="#318DC1"/>
<path d="M388.31 112.833C388.31 113.285 388.333 113.691 388.378 114.052C388.468 115.677 388.513 116.919 388.513 117.776C388.513 118.589 388.446 119.198 388.31 119.605V119.605C388.17 120.165 387.478 120.214 386.9 120.214C386.811 120.214 386.716 120.214 386.617 120.214C386.121 120.169 385.466 120.169 384.654 120.214C383.886 120.259 382.554 120.304 380.658 120.35C378.807 120.395 376.234 120.417 372.939 120.417C369.934 120.417 365.984 120.379 361.089 120.302C360.413 120.291 359.869 119.739 359.869 119.063V119.063C360.005 115.677 360.118 112.63 360.208 109.921C360.298 107.167 360.343 104.617 360.343 102.269C360.389 99.8766 360.411 97.5743 360.411 95.3622C360.411 93.1501 360.389 90.8929 360.343 88.5906C360.298 86.2882 360.253 83.8504 360.208 81.2772C360.173 79.263 360.138 77.0886 360.104 74.7538C360.085 73.4623 360.886 72.3256 362.172 72.2031V72.2031C363.12 72.0677 364.136 72 365.219 72C366.302 72 367.363 72.0677 368.402 72.2031V72.2031C369.949 72.4049 370.873 73.8381 370.84 75.3979C370.794 77.5154 370.772 79.6783 370.772 81.8866C370.817 84.9564 370.862 88.0488 370.907 91.1638C370.952 94.2787 370.975 97.3937 370.975 100.509C371.02 103.578 371.02 106.558 370.975 109.447V109.447C370.975 109.481 371.007 109.506 371.04 109.498C371.369 109.422 371.934 109.405 372.736 109.447C373.638 109.447 374.677 109.47 375.85 109.515C377.024 109.56 378.266 109.628 379.575 109.718C380.929 109.763 382.193 109.808 383.367 109.854C384.586 109.899 385.647 109.944 386.55 109.989C386.717 109.989 386.875 109.988 387.024 109.987C387.816 109.979 388.517 110.622 388.446 111.411V111.411C388.401 111.862 388.355 112.336 388.31 112.833Z" fill="#318DC1"/>
<path d="M422.232 75.9953C423.541 77.169 424.467 78.5459 425.008 80.126C425.324 80.8032 425.55 81.5029 425.686 82.2252C425.866 82.9024 426.002 83.6021 426.092 84.3244C426.182 85.453 426.227 86.5816 426.227 87.7102C426.272 88.7937 426.272 89.8997 426.227 91.0283C426.092 93.421 426.047 95.7459 426.092 98.0032C426.137 100.26 426.069 102.563 425.889 104.91L425.686 107.145C425.595 108.725 425.347 110.328 424.941 111.953C424.534 113.533 423.925 114.977 423.112 116.287C422.345 117.37 421.329 118.25 420.065 118.928C418.846 119.56 417.537 120.056 416.138 120.417C414.874 120.778 413.587 121.004 412.278 121.094C411.014 121.185 409.727 121.185 408.418 121.094C407.47 121.004 406.544 120.869 405.642 120.688C404.784 120.553 403.949 120.304 403.136 119.943C402.369 119.582 401.669 119.131 401.037 118.589C400.405 118.002 399.886 117.257 399.479 116.354C398.847 115.226 398.418 114.029 398.193 112.765C398.012 111.456 397.899 110.147 397.854 108.838C397.719 105.317 397.561 101.795 397.38 98.274C397.245 94.7076 397.29 91.1412 397.516 87.5748C397.561 85.5433 397.809 83.5118 398.26 81.4803C398.757 79.4037 399.705 77.5753 401.105 75.9953C401.556 75.5438 402.075 75.1375 402.662 74.7764C404.152 74.0541 405.754 73.5349 407.47 73.2189C409.23 72.8577 410.969 72.7223 412.684 72.8126C414.445 72.9029 416.138 73.2189 417.763 73.7606C419.433 74.2572 420.923 75.0021 422.232 75.9953ZM417.763 99.8992V96.6488L417.627 92.0441C417.627 91.999 417.582 91.5475 417.492 90.6898C417.447 89.7869 417.402 88.9517 417.356 88.1843C417.266 86.9202 416.905 85.769 416.273 84.7307C415.686 83.6924 414.874 82.9249 413.835 82.4283C412.932 82.0672 412.007 81.9995 411.059 82.2252C410.111 82.4509 409.276 82.8346 408.553 83.3764C406.973 84.5953 405.912 86.1528 405.371 88.0488C405.009 89.7643 404.784 91.5701 404.693 93.4661C404.648 95.3622 404.671 97.2583 404.761 99.1543C404.987 100.734 405.145 102.36 405.235 104.03C405.299 105.18 405.453 106.297 405.698 107.379C405.899 108.268 406.203 109.156 406.812 109.833C407.154 110.214 407.554 110.537 408.012 110.802C408.869 111.298 409.795 111.592 410.788 111.682C411.781 111.727 412.774 111.592 413.767 111.276C414.761 110.914 415.596 110.35 416.273 109.583C416.679 109.041 416.973 108.612 417.153 108.296C417.334 107.935 417.447 107.551 417.492 107.145C417.537 106.739 417.537 106.265 417.492 105.723C417.492 105.136 417.537 104.369 417.627 103.42C417.672 102.518 417.695 101.728 417.695 101.05C417.74 100.373 417.763 99.9895 417.763 99.8992Z" fill="#318DC1"/>
<path d="M464.582 74.3024V74.3024C465.947 74.4461 466.722 75.7397 466.775 77.1118C466.972 82.173 467.031 87.2859 466.952 92.4504C466.862 98.3192 466.501 104.165 465.868 109.989C465.507 112.969 464.379 115.497 462.483 117.573C460.587 119.65 458.013 120.846 454.763 121.162C452.867 121.343 450.903 121.253 448.872 120.891C446.84 120.575 444.989 119.988 443.319 119.131C441.694 118.228 440.317 117.054 439.188 115.609C438.105 114.12 437.518 112.336 437.428 110.26C437.428 104.301 437.495 98.2966 437.631 92.2472C437.766 86.2026 437.789 80.2029 437.699 74.2484C437.698 74.2396 437.695 74.2312 437.689 74.2249L437.679 74.2148C437.661 74.1971 437.673 74.1669 437.698 74.1669V74.1669C438.376 74.1669 439.12 74.1444 439.933 74.0992C440.791 74.0541 441.649 74.0315 442.506 74.0315C443.364 74.0315 444.199 74.0766 445.012 74.1669C445.798 74.2106 446.521 74.3178 447.181 74.4883C447.22 74.4983 447.246 74.5333 447.246 74.5732V74.5732C446.774 84.9657 446.935 95.5011 447.729 106.179C447.81 107.272 447.911 108.422 448.568 109.298C448.84 109.661 449.167 109.959 449.549 110.192C450.407 110.689 451.287 110.914 452.19 110.869C453.093 110.824 453.928 110.508 454.695 109.921C455.107 109.607 455.44 109.227 455.696 108.782C456.159 107.979 456.205 107.018 456.24 106.091C456.429 101.123 456.524 96.0797 456.524 90.9606C456.562 86.1581 456.634 81.4885 456.74 76.9518C456.769 75.6773 457.761 74.6324 459.029 74.5055V74.5055C459.977 74.3701 460.925 74.2798 461.873 74.2346C462.821 74.1895 463.724 74.2121 464.582 74.3024Z" fill="#318DC1"/>
<path d="M506.22 120.417C505.904 120.508 505.362 120.553 504.594 120.553C503.692 120.553 502.653 120.485 501.479 120.35V120.35C499.588 120.204 497.869 119.097 497.084 117.371C496.021 115.033 494.958 112.753 493.895 110.531C492.451 107.371 491.209 104.346 490.171 101.457L489.494 99.4252C489.313 98.9286 489.132 98.4772 488.952 98.0709C488.816 97.6194 488.704 97.3937 488.613 97.3937C488.568 97.3937 488.5 97.9354 488.41 99.0189C488.365 100.102 488.32 101.479 488.275 103.15C488.23 104.82 488.184 106.671 488.139 108.702C488.139 110.734 488.139 112.698 488.139 114.594C488.139 115.632 488.139 116.648 488.139 117.641C488.139 118.007 488.143 118.36 488.149 118.699C488.167 119.583 487.597 120.405 486.717 120.485V120.485C486.221 120.53 485.724 120.553 485.228 120.553C484.144 120.553 483.038 120.485 481.909 120.35V120.35C480.161 120.131 478.727 118.718 478.727 116.955V115.406C478.727 111.118 478.682 107.032 478.591 103.15C478.546 99.2672 478.524 95.2042 478.524 90.9606C478.524 87.8457 478.569 84.7759 478.659 81.7512C478.734 79.1864 478.857 76.6846 479.027 74.2458C479.086 73.3977 479.708 72.6864 480.555 72.6094V72.6094C481.097 72.5643 481.639 72.5417 482.18 72.5417C482.451 72.5417 482.903 72.5643 483.535 72.6094C484.167 72.6094 484.799 72.6546 485.431 72.7449C486.063 72.79 486.604 72.8577 487.056 72.948V72.948C487.587 73.0445 487.898 73.4784 488.105 73.9764C488.307 74.4621 488.499 74.8868 488.681 75.2504C488.952 75.7921 489.2 76.3113 489.426 76.8079C489.697 77.3045 489.968 77.8688 490.239 78.5008C490.555 79.0877 490.916 79.8551 491.322 80.8032C491.412 81.0289 491.615 81.4577 491.931 82.0898C492.247 82.7218 492.609 83.4667 493.015 84.3244C493.421 85.137 493.85 86.0173 494.302 86.9654C494.753 87.8682 495.159 88.7034 495.52 89.4709C495.927 90.1932 496.265 90.8252 496.536 91.3669V91.3669C496.814 91.8756 497.189 91.8519 497.28 91.2796C497.304 91.1263 497.327 90.9523 497.349 90.7575C497.439 89.9449 497.484 89.1549 497.484 88.3874C497.484 86.5816 497.439 84.9113 497.349 83.3764C497.304 81.7963 497.281 80.1937 497.281 78.5685C497.281 77.6205 497.281 76.6724 497.281 75.7244V75.7244C497.366 73.8667 498.723 72.285 500.58 72.1821C501.14 72.151 501.711 72.1354 502.292 72.1354V72.1354C504.91 72.1354 506.761 74.4193 506.761 77.0371V94.3465C506.806 96.2425 506.829 98.1612 506.829 100.102C506.829 102.044 506.829 103.985 506.829 105.926C506.829 107.235 506.806 108.499 506.761 109.718C506.761 110.937 506.761 112.178 506.761 113.443C506.761 114.345 506.761 115.248 506.761 116.151C506.806 117.054 506.829 117.957 506.829 118.86V119.571C506.829 119.965 506.599 120.309 506.22 120.417V120.417Z" fill="#318DC1"/>
<path d="M532.632 96.7843C532.632 96.712 532.734 96.6997 532.798 96.6674C532.81 96.6617 532.822 96.6555 532.835 96.6488C533.422 96.2877 534.37 96.0845 535.68 96.0394C537.034 95.9491 538.456 95.9265 539.946 95.9717C541.435 96.0168 542.812 96.1071 544.076 96.2425C545.386 96.3328 546.266 96.378 546.717 96.378H546.801C546.834 96.378 546.866 96.3912 546.889 96.4147V96.4147C546.91 96.4347 546.922 96.461 546.925 96.4892C547.194 98.8692 547.372 101.405 547.462 104.098C547.552 106.761 547.372 109.312 546.92 111.75C546.695 114.052 545.995 115.813 544.821 117.032C543.647 118.25 542.203 119.176 540.487 119.808C539.359 120.124 538.185 120.395 536.966 120.62C535.747 120.891 534.506 121.072 533.242 121.162C531.978 121.298 530.736 121.298 529.517 121.162C528.344 121.027 527.215 120.733 526.131 120.282C524.326 119.514 522.949 118.476 522.001 117.167C521.053 115.858 520.308 114.233 519.766 112.291C519.631 111.795 519.473 111.118 519.292 110.26C519.157 109.357 519.044 108.454 518.954 107.551C518.818 106.107 518.705 104.797 518.615 103.624C518.525 102.45 518.434 101.299 518.344 100.17C518.299 98.9963 518.254 97.7774 518.209 96.5134C518.209 95.2042 518.231 93.7144 518.276 92.0441C518.321 90.5995 518.389 89.1323 518.479 87.6425C518.57 86.1076 518.728 84.6178 518.954 83.1732C519.179 81.6835 519.563 80.2388 520.105 78.8394C520.692 77.4399 521.64 76.2887 522.949 75.3858C523.852 74.6184 524.867 74.0541 525.996 73.6929C527.125 73.3318 528.298 73.0609 529.517 72.8803C532 72.5643 534.37 72.6546 536.628 73.1512C538.885 73.6026 540.826 74.4378 542.451 75.6567C544.076 76.8756 545.295 78.5008 546.108 80.5323C546.92 82.5186 547.169 84.8887 546.853 87.6425V87.6425C546.808 87.9103 546.698 88.1897 546.43 88.2336C546.355 88.2459 546.27 88.252 546.176 88.252C545.86 88.252 545.34 88.2745 544.618 88.3197C543.941 88.3197 543.354 88.3423 542.857 88.3874C542.406 88.3874 541.932 88.3874 541.435 88.3874C540.984 88.3874 540.51 88.3648 540.013 88.3197C540.002 88.3186 539.99 88.3175 539.978 88.3164C538.925 88.2193 538.06 87.463 537.643 86.4913V86.4913C537.418 85.8142 537.102 85.2047 536.695 84.663C536.334 84.0761 535.905 83.5795 535.409 83.1732C534.912 82.7218 534.325 82.4961 533.648 82.4961C532.881 82.4509 532.136 82.4283 531.413 82.4283C530.691 82.4283 530.059 82.6992 529.517 83.2409C529.427 83.3312 529.292 83.5795 529.111 83.9858C528.976 84.347 528.863 84.7081 528.772 85.0693C528.456 86.1528 528.186 87.4619 527.96 88.9969C527.779 90.5318 527.644 92.1795 527.554 93.9402C527.463 95.6556 527.441 97.4388 527.486 99.2898C527.531 101.141 527.621 102.901 527.757 104.572C527.847 105.565 528.028 106.648 528.298 107.822C528.569 108.996 529.134 109.921 529.991 110.598C530.398 110.869 530.917 111.072 531.549 111.208C532.226 111.298 532.926 111.276 533.648 111.14C534.415 111.005 535.115 110.824 535.747 110.598C536.244 110.373 536.673 110.079 537.034 109.718C537.395 109.312 537.666 108.793 537.846 108.161C537.892 107.98 537.937 107.687 537.982 107.28C538.072 106.829 538.117 106.377 538.117 105.926C538.162 105.475 538.162 105.068 538.117 104.707V104.707C538.117 104.256 537.689 104.052 537.238 104.067C537.093 104.072 536.935 104.082 536.763 104.098C536.312 104.098 535.815 104.12 535.273 104.165C534.777 104.165 534.303 104.165 533.851 104.165V104.165C533.255 104.099 532.855 103.593 532.79 102.997C532.754 102.661 532.724 102.351 532.7 102.066C532.7 101.524 532.7 101.005 532.7 100.509C532.745 99.9669 532.768 99.4252 532.768 98.8835C532.768 98.3417 532.723 97.6646 532.632 96.852V96.7843V96.7843Z" fill="#318DC1"/>
<path d="M578.168 110.937C581.015 111.07 583.949 111.094 586.971 111.009C587.045 111.007 587.107 111.066 587.107 111.14V111.14C587.197 112.585 587.219 114.097 587.174 115.677V115.677C587.098 118.257 584.76 119.988 582.179 120.002C578.988 120.02 575.755 120.091 572.48 120.214C571.796 120.234 571.115 120.248 570.438 120.257C563.857 120.347 558.82 114.809 558.666 108.228V108.228C558.575 104.346 558.508 100.486 558.462 96.6488C558.417 92.8116 558.417 88.9743 558.462 85.137C558.485 83.1783 558.532 81.2137 558.602 79.2432C558.717 76.0058 561.318 73.4263 564.557 73.3543V73.3543C566.634 73.264 568.71 73.1963 570.787 73.1512C572.863 73.106 574.872 73.0609 576.814 73.0157C578.755 72.9706 580.47 72.948 581.96 72.948C583.45 72.948 584.646 72.9706 585.549 73.0157C585.627 73.0196 585.701 73.0235 585.772 73.0274C586.533 73.069 586.968 73.5293 587.034 74.2893C587.14 75.4995 587.142 76.7228 587.039 77.9591C586.949 79.5843 586.903 81.1869 586.903 82.7669V82.7669C586.903 82.8065 586.876 82.8407 586.837 82.849C585.414 83.1568 583.969 83.3552 582.502 83.4441C581.057 83.4892 579.59 83.5118 578.1 83.5118C576.61 83.4667 575.121 83.4441 573.631 83.4441C572.141 83.4441 570.651 83.5118 569.162 83.6472H569.005C568.975 83.6472 568.947 83.6591 568.925 83.6803V83.6803C568.903 83.7024 568.891 83.7327 568.892 83.7639C568.934 85.0579 568.866 86.3959 568.688 87.778C568.554 89.1179 568.641 90.3915 568.948 91.5988C568.955 91.6244 568.968 91.6476 568.987 91.6662V91.6662C569.012 91.6916 569.046 91.7068 569.082 91.7092C570.418 91.797 571.777 91.8409 573.157 91.8409C574.535 91.8409 575.914 91.8628 577.292 91.9067C577.328 91.9078 577.355 91.9365 577.355 91.9716V91.9716C577.355 91.9748 577.356 91.978 577.356 91.9811C577.581 93.5144 577.649 95.0478 577.559 96.5811C577.511 97.388 577.482 98.2136 577.472 99.0579C577.456 100.424 576.553 101.656 575.188 101.728V101.728C574.331 101.728 573.495 101.728 572.683 101.728C571.915 101.728 571.216 101.75 570.584 101.795V101.795C569.718 101.857 569.203 102.605 569.119 103.469C569.027 104.42 568.996 105.442 569.026 106.535C569.115 108.138 569.204 109.478 569.293 110.554C569.296 110.583 569.308 110.61 569.329 110.63V110.63C569.352 110.653 569.383 110.666 569.416 110.666C572.378 110.667 575.295 110.757 578.168 110.937Z" fill="#318DC1"/>
</svg>
