<svg width="870" height="870" viewBox="0 0 870 870" fill="none" xmlns="http://www.w3.org/2000/svg">
<path d="M656 448.5C656 476.012 649.288 503.254 636.247 528.672C623.206 554.09 604.091 577.185 579.994 596.639C555.897 616.093 527.29 631.524 495.806 642.053C464.322 652.581 430.578 658 396.5 658C362.422 658 328.678 652.581 297.194 642.053C265.71 631.524 237.103 616.093 213.006 596.639C188.909 577.185 169.794 554.09 156.753 528.672C143.712 503.254 137 476.012 137 448.5L396.5 448.5H656Z" fill="#97CFEE"/>
<path d="M656 427C656 395.22 649.288 363.751 636.247 334.391C623.206 305.03 604.091 278.352 579.994 255.88C555.897 233.408 527.29 215.583 495.806 203.421C464.322 191.26 430.578 185 396.5 185L396.5 427H656Z" fill="#FDCE73"/>
<circle cx="234.5" cy="697.5" r="39.5" fill="#97CFEE"/>
<circle cx="558.5" cy="697.5" r="39.5" fill="#97CFEE"/>
<path d="M77 386.25C77 380.589 81.5891 376 87.25 376H208.539C215.525 376 222.193 378.923 226.926 384.062L295.696 458.715C302.306 465.891 297.216 477.5 287.46 477.5V477.5C284.301 477.5 281.29 476.166 279.167 473.827L216.441 404.7C211.702 399.478 204.979 396.5 197.927 396.5H87.25C81.5891 396.5 77 391.911 77 386.25V386.25Z" fill="#97CFEE"/>
<rect x="641.619" y="268.02" width="113.732" height="33" rx="16.5" transform="rotate(-38.5162 641.619 268.02)" fill="#FDCE73"/>
<rect x="679.174" y="299.216" width="113.732" height="33" rx="16.5" transform="rotate(6.48378 679.174 299.216)" fill="#FDCE73"/>
<rect width="113.732" height="33" rx="16.5" transform="matrix(0.112922 -0.993604 -0.993604 -0.112922 639.789 249.731)" fill="#FDCE73"/>
</svg>
